<mxfile host="app.diagrams.net" modified="2022-03-28T19:46:51.532Z" agent="5.0 (Macintosh; Intel Mac OS X 10_15_7) AppleWebKit/537.36 (KHTML, like Gecko) Chrome/99.0.4844.51 Safari/537.36 Edg/99.0.1150.36" etag="BxiChqBmiPpEAtGeGiWI" version="17.1.1" type="github">
  <diagram id="cYDBmVYOFc_14CTJ4Xyj" name="Page-1">
    <mxGraphModel dx="1738" dy="519" grid="1" gridSize="10" guides="1" tooltips="1" connect="1" arrows="1" fold="1" page="1" pageScale="1" pageWidth="850" pageHeight="1100" math="0" shadow="0">
      <root>
        <mxCell id="0" />
        <mxCell id="1" parent="0" />
        <mxCell id="gaOuif3OEhAhwcFUhQUa-3" value="" style="rounded=0;whiteSpace=wrap;html=1;fillColor=#E6E6E6;" parent="1" vertex="1">
          <mxGeometry x="50" y="50" width="190" height="460" as="geometry" />
        </mxCell>
        <mxCell id="VT0sh7oXGwm4QYS-XGYe-3" value="" style="rounded=0;whiteSpace=wrap;html=1;fillColor=#CCCCCC;gradientColor=none;" parent="1" vertex="1">
          <mxGeometry x="190" y="120" width="10" height="155" as="geometry" />
        </mxCell>
        <mxCell id="jbpHn88a3uGicEXrHRVo-7" value="" style="verticalLabelPosition=bottom;html=1;verticalAlign=top;align=center;shape=mxgraph.floorplan.doorRight;aspect=fixed;fillColor=none;gradientColor=none;direction=north;strokeColor=#007FFF;" parent="1" vertex="1">
          <mxGeometry x="185" y="70" width="31.88" height="30" as="geometry" />
        </mxCell>
        <mxCell id="jbpHn88a3uGicEXrHRVo-8" value="" style="rounded=0;whiteSpace=wrap;html=1;fillColor=#666666;gradientColor=none;" parent="1" vertex="1">
          <mxGeometry x="240" y="110" width="379" height="275" as="geometry" />
        </mxCell>
        <mxCell id="jbpHn88a3uGicEXrHRVo-4" value="" style="rounded=0;whiteSpace=wrap;html=1;fillColor=#E6E6E6;gradientColor=none;" parent="1" vertex="1">
          <mxGeometry x="70" y="70" width="110" height="350" as="geometry" />
        </mxCell>
        <mxCell id="jbpHn88a3uGicEXrHRVo-2" value="" style="rounded=0;whiteSpace=wrap;html=1;fillColor=#007FFF;gradientColor=#000066;" parent="1" vertex="1">
          <mxGeometry x="80" y="80" width="90" height="330" as="geometry" />
        </mxCell>
        <mxCell id="zBYr0LIhLVNMkPraqiSg-37" value="" style="rounded=0;whiteSpace=wrap;html=1;fillColor=#99CCFF;gradientColor=none;" parent="1" vertex="1">
          <mxGeometry x="80" y="80" width="90" height="60" as="geometry" />
        </mxCell>
        <mxCell id="zBYr0LIhLVNMkPraqiSg-40" value="" style="rounded=0;whiteSpace=wrap;html=1;fillColor=#3399FF;gradientColor=none;" parent="1" vertex="1">
          <mxGeometry x="140" y="130" width="30" height="10" as="geometry" />
        </mxCell>
        <mxCell id="zBYr0LIhLVNMkPraqiSg-39" value="" style="rounded=0;whiteSpace=wrap;html=1;fillColor=#66B2FF;gradientColor=none;" parent="1" vertex="1">
          <mxGeometry x="140" y="120" width="30" height="10" as="geometry" />
        </mxCell>
        <mxCell id="zBYr0LIhLVNMkPraqiSg-36" value="" style="rounded=0;whiteSpace=wrap;html=1;fillColor=#CCE5FF;gradientColor=none;" parent="1" vertex="1">
          <mxGeometry x="140" y="80" width="30" height="20" as="geometry" />
        </mxCell>
        <mxCell id="zBYr0LIhLVNMkPraqiSg-1" value="" style="endArrow=none;html=1;rounded=0;" parent="1" edge="1">
          <mxGeometry width="50" height="50" relative="1" as="geometry">
            <mxPoint as="sourcePoint" />
            <mxPoint y="700" as="targetPoint" />
          </mxGeometry>
        </mxCell>
        <mxCell id="zBYr0LIhLVNMkPraqiSg-2" value="" style="endArrow=none;html=1;rounded=0;" parent="1" edge="1">
          <mxGeometry width="50" height="50" relative="1" as="geometry">
            <mxPoint as="sourcePoint" />
            <mxPoint x="619" as="targetPoint" />
          </mxGeometry>
        </mxCell>
        <mxCell id="zBYr0LIhLVNMkPraqiSg-3" value="" style="endArrow=none;html=1;rounded=0;dashed=1;dashPattern=1 4;" parent="1" edge="1">
          <mxGeometry width="50" height="50" relative="1" as="geometry">
            <mxPoint x="240" as="sourcePoint" />
            <mxPoint x="240" y="550" as="targetPoint" />
          </mxGeometry>
        </mxCell>
        <mxCell id="zBYr0LIhLVNMkPraqiSg-8" value="" style="endArrow=none;html=1;rounded=0;dashed=1;dashPattern=1 4;" parent="1" edge="1">
          <mxGeometry width="50" height="50" relative="1" as="geometry">
            <mxPoint y="110" as="sourcePoint" />
            <mxPoint x="240" y="110" as="targetPoint" />
          </mxGeometry>
        </mxCell>
        <mxCell id="zBYr0LIhLVNMkPraqiSg-12" value="" style="endArrow=none;dashed=1;html=1;rounded=0;" parent="1" edge="1">
          <mxGeometry width="50" height="50" relative="1" as="geometry">
            <mxPoint x="50" as="sourcePoint" />
            <mxPoint x="50" y="550" as="targetPoint" />
          </mxGeometry>
        </mxCell>
        <mxCell id="zBYr0LIhLVNMkPraqiSg-24" value="" style="endArrow=none;html=1;rounded=0;" parent="1" edge="1">
          <mxGeometry width="50" height="50" relative="1" as="geometry">
            <mxPoint x="50" y="50" as="sourcePoint" />
            <mxPoint x="240" y="50" as="targetPoint" />
          </mxGeometry>
        </mxCell>
        <mxCell id="zBYr0LIhLVNMkPraqiSg-26" value="" style="endArrow=none;html=1;rounded=0;" parent="1" edge="1">
          <mxGeometry width="50" height="50" relative="1" as="geometry">
            <mxPoint x="50" y="510" as="sourcePoint" />
            <mxPoint x="210" y="510" as="targetPoint" />
          </mxGeometry>
        </mxCell>
        <mxCell id="zBYr0LIhLVNMkPraqiSg-28" value="" style="endArrow=none;html=1;rounded=0;" parent="1" edge="1">
          <mxGeometry width="50" height="50" relative="1" as="geometry">
            <mxPoint x="210" y="345" as="sourcePoint" />
            <mxPoint x="240" y="345" as="targetPoint" />
          </mxGeometry>
        </mxCell>
        <mxCell id="zBYr0LIhLVNMkPraqiSg-31" value="" style="endArrow=none;html=1;rounded=0;" parent="1" edge="1">
          <mxGeometry width="50" height="50" relative="1" as="geometry">
            <mxPoint x="210" y="345" as="sourcePoint" />
            <mxPoint x="210" y="510" as="targetPoint" />
          </mxGeometry>
        </mxCell>
        <mxCell id="zBYr0LIhLVNMkPraqiSg-32" value="7ft" style="text;html=1;strokeColor=none;fillColor=none;align=center;verticalAlign=middle;whiteSpace=wrap;rounded=0;rotation=90;" parent="1" vertex="1">
          <mxGeometry x="195" y="85" width="60" height="30" as="geometry" />
        </mxCell>
        <mxCell id="zBYr0LIhLVNMkPraqiSg-34" value="" style="endArrow=none;dashed=1;html=1;rounded=0;" parent="1" edge="1">
          <mxGeometry width="50" height="50" relative="1" as="geometry">
            <mxPoint y="50" as="sourcePoint" />
            <mxPoint x="550" y="50" as="targetPoint" />
          </mxGeometry>
        </mxCell>
        <mxCell id="jbpHn88a3uGicEXrHRVo-3" value="" style="rounded=0;whiteSpace=wrap;html=1;fillColor=#99CCFF;gradientColor=none;" parent="1" vertex="1">
          <mxGeometry x="80" y="395" width="90" height="15" as="geometry" />
        </mxCell>
        <mxCell id="jbpHn88a3uGicEXrHRVo-5" value="" style="endArrow=classic;startArrow=classic;html=1;rounded=0;" parent="1" edge="1">
          <mxGeometry width="50" height="50" relative="1" as="geometry">
            <mxPoint x="50" y="40" as="sourcePoint" />
            <mxPoint x="240" y="40" as="targetPoint" />
          </mxGeometry>
        </mxCell>
        <mxCell id="jbpHn88a3uGicEXrHRVo-6" value="19ft" style="text;html=1;strokeColor=none;fillColor=none;align=center;verticalAlign=middle;whiteSpace=wrap;rounded=0;" parent="1" vertex="1">
          <mxGeometry x="135" y="15" width="60" height="30" as="geometry" />
        </mxCell>
        <mxCell id="H_WPWcBrMyffaND-7lD4-1" value="" style="endArrow=none;html=1;rounded=0;" parent="1" edge="1">
          <mxGeometry width="50" height="50" relative="1" as="geometry">
            <mxPoint x="50" y="50" as="sourcePoint" />
            <mxPoint x="50" y="510" as="targetPoint" />
          </mxGeometry>
        </mxCell>
        <mxCell id="H_WPWcBrMyffaND-7lD4-7" value="" style="endArrow=none;html=1;rounded=0;" parent="1" edge="1">
          <mxGeometry width="50" height="50" relative="1" as="geometry">
            <mxPoint x="619" as="sourcePoint" />
            <mxPoint x="619" y="110" as="targetPoint" />
          </mxGeometry>
        </mxCell>
        <mxCell id="H_WPWcBrMyffaND-7lD4-8" value="" style="verticalLabelPosition=bottom;html=1;verticalAlign=top;align=center;shape=mxgraph.floorplan.doorDouble;aspect=fixed;fontColor=#FFFFFF;strokeColor=#000000;fillColor=none;gradientColor=none;direction=north;" parent="1" vertex="1">
          <mxGeometry x="614" y="5" width="53.14" height="100" as="geometry" />
        </mxCell>
        <mxCell id="H_WPWcBrMyffaND-7lD4-9" value="" style="endArrow=none;html=1;rounded=0;" parent="1" edge="1">
          <mxGeometry width="50" height="50" relative="1" as="geometry">
            <mxPoint x="240" y="50" as="sourcePoint" />
            <mxPoint x="240" y="110" as="targetPoint" />
          </mxGeometry>
        </mxCell>
        <mxCell id="H_WPWcBrMyffaND-7lD4-22" value="" style="rounded=0;whiteSpace=wrap;html=1;fontColor=#FFFFFF;strokeColor=none;fillColor=#FFFFFF;gradientColor=none;" parent="1" vertex="1">
          <mxGeometry x="210" y="345" width="30" height="226.66" as="geometry" />
        </mxCell>
        <mxCell id="H_WPWcBrMyffaND-7lD4-23" value="" style="rounded=0;whiteSpace=wrap;html=1;fontColor=#FFFFFF;strokeColor=none;fillColor=#FFFFFF;gradientColor=none;" parent="1" vertex="1">
          <mxGeometry x="240" y="385" width="26.66" height="186.66" as="geometry" />
        </mxCell>
        <mxCell id="H_WPWcBrMyffaND-7lD4-24" value="" style="rounded=0;whiteSpace=wrap;html=1;fillColor=#CCCCCC;gradientColor=none;" parent="1" vertex="1">
          <mxGeometry x="271.66" y="415" width="40" height="10" as="geometry" />
        </mxCell>
        <mxCell id="H_WPWcBrMyffaND-7lD4-25" value="" style="rounded=0;whiteSpace=wrap;html=1;fillColor=#999999;gradientColor=none;" parent="1" vertex="1">
          <mxGeometry x="266.66" y="385" width="50" height="30" as="geometry" />
        </mxCell>
        <mxCell id="H_WPWcBrMyffaND-7lD4-27" value="3x2" style="text;html=1;strokeColor=none;fillColor=none;align=center;verticalAlign=middle;whiteSpace=wrap;rounded=0;" parent="1" vertex="1">
          <mxGeometry x="125" y="75" width="60" height="30" as="geometry" />
        </mxCell>
        <mxCell id="H_WPWcBrMyffaND-7lD4-29" value="5x3" style="text;html=1;strokeColor=none;fillColor=none;align=center;verticalAlign=middle;whiteSpace=wrap;rounded=0;" parent="1" vertex="1">
          <mxGeometry x="261.66" y="385" width="60" height="30" as="geometry" />
        </mxCell>
        <mxCell id="H_WPWcBrMyffaND-7lD4-30" value="" style="rounded=0;whiteSpace=wrap;html=1;fillColor=#666666;gradientColor=none;" parent="1" vertex="1">
          <mxGeometry x="20" y="545" width="192" height="142" as="geometry" />
        </mxCell>
        <mxCell id="gaOuif3OEhAhwcFUhQUa-1" value="9x1.5" style="text;html=1;strokeColor=none;fillColor=none;align=center;verticalAlign=middle;whiteSpace=wrap;rounded=0;" parent="1" vertex="1">
          <mxGeometry x="100" y="388" width="60" height="30" as="geometry" />
        </mxCell>
        <mxCell id="gaOuif3OEhAhwcFUhQUa-7" value="7ft" style="text;html=1;strokeColor=none;fillColor=none;align=center;verticalAlign=middle;whiteSpace=wrap;rounded=0;rotation=90;" parent="1" vertex="1">
          <mxGeometry x="195" y="280" width="60" height="30" as="geometry" />
        </mxCell>
        <mxCell id="gaOuif3OEhAhwcFUhQUa-10" value="" style="endArrow=none;html=1;rounded=0;fontColor=#FFFFFF;" parent="1" edge="1">
          <mxGeometry width="50" height="50" relative="1" as="geometry">
            <mxPoint y="410" as="sourcePoint" />
            <mxPoint x="340" y="410" as="targetPoint" />
          </mxGeometry>
        </mxCell>
        <mxCell id="gaOuif3OEhAhwcFUhQUa-13" value="" style="endArrow=classic;startArrow=classic;html=1;rounded=0;fontColor=#FFFFFF;" parent="1" edge="1">
          <mxGeometry width="50" height="50" relative="1" as="geometry">
            <mxPoint x="40" y="410" as="sourcePoint" />
            <mxPoint x="40" y="510" as="targetPoint" />
          </mxGeometry>
        </mxCell>
        <mxCell id="gaOuif3OEhAhwcFUhQUa-14" value="10ft" style="text;html=1;strokeColor=none;fillColor=none;align=center;verticalAlign=middle;whiteSpace=wrap;rounded=0;" parent="1" vertex="1">
          <mxGeometry x="-10" y="440" width="60" height="30" as="geometry" />
        </mxCell>
        <mxCell id="gaOuif3OEhAhwcFUhQUa-17" value="" style="endArrow=classic;startArrow=classic;html=1;rounded=0;fontColor=#FFFFFF;" parent="1" edge="1">
          <mxGeometry width="50" height="50" relative="1" as="geometry">
            <mxPoint x="50" y="140" as="sourcePoint" />
            <mxPoint x="80" y="140" as="targetPoint" />
          </mxGeometry>
        </mxCell>
        <mxCell id="gaOuif3OEhAhwcFUhQUa-19" value="3ft" style="text;html=1;strokeColor=none;fillColor=none;align=center;verticalAlign=middle;whiteSpace=wrap;rounded=0;" parent="1" vertex="1">
          <mxGeometry x="35" y="110" width="60" height="30" as="geometry" />
        </mxCell>
        <mxCell id="gaOuif3OEhAhwcFUhQUa-21" value="" style="endArrow=classic;startArrow=classic;html=1;rounded=0;fontColor=#FFFFFF;" parent="1" edge="1">
          <mxGeometry width="50" height="50" relative="1" as="geometry">
            <mxPoint x="120" y="50" as="sourcePoint" />
            <mxPoint x="120" y="80" as="targetPoint" />
          </mxGeometry>
        </mxCell>
        <mxCell id="gaOuif3OEhAhwcFUhQUa-22" value="3ft" style="text;html=1;strokeColor=none;fillColor=none;align=center;verticalAlign=middle;whiteSpace=wrap;rounded=0;" parent="1" vertex="1">
          <mxGeometry x="80" y="50" width="60" height="30" as="geometry" />
        </mxCell>
        <mxCell id="gaOuif3OEhAhwcFUhQUa-24" value="" style="endArrow=classic;startArrow=classic;html=1;rounded=0;fontColor=#FFFFFF;fontStyle=1" parent="1" edge="1">
          <mxGeometry width="50" height="50" relative="1" as="geometry">
            <mxPoint x="170" y="365" as="sourcePoint" />
            <mxPoint x="210" y="365" as="targetPoint" />
          </mxGeometry>
        </mxCell>
        <mxCell id="gaOuif3OEhAhwcFUhQUa-25" value="4ft" style="text;html=1;strokeColor=none;fillColor=none;align=center;verticalAlign=middle;whiteSpace=wrap;rounded=0;" parent="1" vertex="1">
          <mxGeometry x="160" y="340" width="60" height="30" as="geometry" />
        </mxCell>
        <mxCell id="gaOuif3OEhAhwcFUhQUa-26" value="" style="endArrow=classic;startArrow=classic;html=1;rounded=0;fontColor=#FFFFFF;" parent="1" edge="1">
          <mxGeometry width="50" height="50" relative="1" as="geometry">
            <mxPoint x="50" y="500" as="sourcePoint" />
            <mxPoint x="210" y="500" as="targetPoint" />
          </mxGeometry>
        </mxCell>
        <mxCell id="gaOuif3OEhAhwcFUhQUa-27" value="16ft" style="text;html=1;strokeColor=none;fillColor=none;align=center;verticalAlign=middle;whiteSpace=wrap;rounded=0;" parent="1" vertex="1">
          <mxGeometry x="100" y="470" width="60" height="30" as="geometry" />
        </mxCell>
        <mxCell id="gaOuif3OEhAhwcFUhQUa-28" value="" style="endArrow=classic;startArrow=classic;html=1;rounded=0;fontColor=#FFFFFF;fontStyle=1" parent="1" edge="1">
          <mxGeometry width="50" height="50" relative="1" as="geometry">
            <mxPoint x="210" y="365" as="sourcePoint" />
            <mxPoint x="240" y="365" as="targetPoint" />
          </mxGeometry>
        </mxCell>
        <mxCell id="gaOuif3OEhAhwcFUhQUa-29" value="3ft" style="text;html=1;strokeColor=none;fillColor=none;align=center;verticalAlign=middle;whiteSpace=wrap;rounded=0;" parent="1" vertex="1">
          <mxGeometry x="195" y="340" width="60" height="30" as="geometry" />
        </mxCell>
        <mxCell id="jbpHn88a3uGicEXrHRVo-1" value="9x33ft" style="text;html=1;strokeColor=none;fillColor=none;align=center;verticalAlign=middle;whiteSpace=wrap;rounded=0;fontColor=#FFFFFF;" parent="1" vertex="1">
          <mxGeometry x="95" y="232.5" width="60" height="30" as="geometry" />
        </mxCell>
        <mxCell id="H_WPWcBrMyffaND-7lD4-26" value="6x6" style="text;html=1;strokeColor=none;fillColor=none;align=center;verticalAlign=middle;whiteSpace=wrap;rounded=0;" parent="1" vertex="1">
          <mxGeometry x="80" y="75" width="60" height="30" as="geometry" />
        </mxCell>
        <mxCell id="VT0sh7oXGwm4QYS-XGYe-6" value="" style="endArrow=classic;startArrow=classic;html=1;rounded=0;strokeColor=#000000;strokeWidth=1;" parent="1" edge="1">
          <mxGeometry width="50" height="50" relative="1" as="geometry">
            <mxPoint x="40" y="50" as="sourcePoint" />
            <mxPoint x="40" y="110" as="targetPoint" />
          </mxGeometry>
        </mxCell>
        <mxCell id="VT0sh7oXGwm4QYS-XGYe-7" value="6ft" style="text;html=1;strokeColor=none;fillColor=none;align=center;verticalAlign=middle;whiteSpace=wrap;rounded=0;" parent="1" vertex="1">
          <mxGeometry x="-10" y="50" width="60" height="30" as="geometry" />
        </mxCell>
        <mxCell id="tjLQN_EO66LZ-qP0ui6d-1" value="" style="endArrow=classic;startArrow=classic;html=1;rounded=0;strokeColor=#000000;strokeWidth=1;" parent="1" edge="1">
          <mxGeometry width="50" height="50" relative="1" as="geometry">
            <mxPoint x="235" y="50" as="sourcePoint" />
            <mxPoint x="235" y="120" as="targetPoint" />
          </mxGeometry>
        </mxCell>
        <mxCell id="tjLQN_EO66LZ-qP0ui6d-2" value="" style="endArrow=classic;startArrow=classic;html=1;rounded=0;strokeColor=#000000;strokeWidth=1;" parent="1" edge="1">
          <mxGeometry width="50" height="50" relative="1" as="geometry">
            <mxPoint x="235" y="275" as="sourcePoint" />
            <mxPoint x="235" y="345" as="targetPoint" />
          </mxGeometry>
        </mxCell>
        <mxCell id="tjLQN_EO66LZ-qP0ui6d-3" value="7x4.5&lt;br&gt;Equipment" style="rounded=0;whiteSpace=wrap;html=1;fillColor=#FFFFFF;" parent="1" vertex="1">
          <mxGeometry x="270" y="65" width="70" height="45" as="geometry" />
        </mxCell>
        <mxCell id="tjLQN_EO66LZ-qP0ui6d-4" value="" style="endArrow=classic;startArrow=classic;html=1;rounded=0;fontColor=#FFFFFF;fontStyle=1" parent="1" edge="1">
          <mxGeometry width="50" height="50" relative="1" as="geometry">
            <mxPoint x="240" y="90" as="sourcePoint" />
            <mxPoint x="270" y="90" as="targetPoint" />
          </mxGeometry>
        </mxCell>
        <mxCell id="tjLQN_EO66LZ-qP0ui6d-5" value="3ft" style="text;html=1;strokeColor=none;fillColor=none;align=center;verticalAlign=middle;whiteSpace=wrap;rounded=0;" parent="1" vertex="1">
          <mxGeometry x="230" y="85" width="60" height="30" as="geometry" />
        </mxCell>
        <mxCell id="zBYr0LIhLVNMkPraqiSg-30" value="" style="endArrow=none;html=1;rounded=0;dashed=1;dashPattern=1 4;" parent="1" edge="1">
          <mxGeometry width="50" height="50" relative="1" as="geometry">
            <mxPoint y="385" as="sourcePoint" />
            <mxPoint x="240" y="385" as="targetPoint" />
          </mxGeometry>
        </mxCell>
        <mxCell id="tjLQN_EO66LZ-qP0ui6d-6" value="" style="endArrow=classic;startArrow=classic;html=1;rounded=0;fontColor=#FFFFFF;" parent="1" edge="1">
          <mxGeometry width="50" height="50" relative="1" as="geometry">
            <mxPoint x="40" y="110" as="sourcePoint" />
            <mxPoint x="40" y="410" as="targetPoint" />
          </mxGeometry>
        </mxCell>
        <mxCell id="tjLQN_EO66LZ-qP0ui6d-7" value="30ft" style="text;html=1;strokeColor=none;fillColor=none;align=center;verticalAlign=middle;whiteSpace=wrap;rounded=0;" parent="1" vertex="1">
          <mxGeometry x="-10" y="210" width="60" height="30" as="geometry" />
        </mxCell>
        <mxCell id="tjLQN_EO66LZ-qP0ui6d-9" value="" style="endArrow=classic;startArrow=classic;html=1;rounded=0;fontColor=#FFFFFF;" parent="1" edge="1">
          <mxGeometry width="50" height="50" relative="1" as="geometry">
            <mxPoint x="75" y="80" as="sourcePoint" />
            <mxPoint x="75" y="110" as="targetPoint" />
          </mxGeometry>
        </mxCell>
        <mxCell id="tjLQN_EO66LZ-qP0ui6d-10" value="3ft" style="text;html=1;strokeColor=none;fillColor=none;align=center;verticalAlign=middle;whiteSpace=wrap;rounded=0;" parent="1" vertex="1">
          <mxGeometry x="35" y="80" width="60" height="30" as="geometry" />
        </mxCell>
        <mxCell id="zBYr0LIhLVNMkPraqiSg-15" value="" style="rounded=0;whiteSpace=wrap;html=1;fillColor=#999999;gradientColor=none;" parent="1" vertex="1">
          <mxGeometry x="170" y="130" width="70" height="135" as="geometry" />
        </mxCell>
        <mxCell id="zBYr0LIhLVNMkPraqiSg-17" value="" style="rounded=0;whiteSpace=wrap;html=1;fillColor=#CCCCCC;gradientColor=none;" parent="1" vertex="1">
          <mxGeometry x="170" y="265" width="70" height="10" as="geometry" />
        </mxCell>
        <mxCell id="zBYr0LIhLVNMkPraqiSg-16" value="" style="rounded=0;whiteSpace=wrap;html=1;fillColor=#CCCCCC;gradientColor=none;" parent="1" vertex="1">
          <mxGeometry x="170" y="120" width="70" height="10" as="geometry" />
        </mxCell>
        <mxCell id="H_WPWcBrMyffaND-7lD4-6" value="" style="verticalLabelPosition=bottom;html=1;verticalAlign=top;align=center;shape=mxgraph.floorplan.doorDouble;aspect=fixed;fontColor=#FFFFFF;strokeColor=#000000;fillColor=none;gradientColor=none;direction=south;" parent="1" vertex="1">
          <mxGeometry x="218.5" y="172" width="26.57" height="50" as="geometry" />
        </mxCell>
        <mxCell id="VT0sh7oXGwm4QYS-XGYe-5" value="&lt;font color=&quot;#ffffff&quot;&gt;7x13.5&lt;/font&gt;" style="text;html=1;strokeColor=none;fillColor=none;align=center;verticalAlign=middle;whiteSpace=wrap;rounded=0;rotation=0;" parent="1" vertex="1">
          <mxGeometry x="180" y="130" width="60" height="30" as="geometry" />
        </mxCell>
        <mxCell id="zBYr0LIhLVNMkPraqiSg-13" value="" style="endArrow=none;dashed=1;html=1;rounded=0;" parent="1" edge="1">
          <mxGeometry width="50" height="50" relative="1" as="geometry">
            <mxPoint x="190" as="sourcePoint" />
            <mxPoint x="190" y="550" as="targetPoint" />
          </mxGeometry>
        </mxCell>
        <mxCell id="2j2zFg-mZ-czmFyBMrvt-1" value="3x2" style="text;html=1;strokeColor=none;fillColor=none;align=center;verticalAlign=middle;whiteSpace=wrap;rounded=0;" vertex="1" parent="1">
          <mxGeometry x="125" y="95" width="60" height="30" as="geometry" />
        </mxCell>
        <mxCell id="H_WPWcBrMyffaND-7lD4-2" value="" style="rounded=0;whiteSpace=wrap;html=1;fontColor=#FFFFFF;fillColor=none;gradientColor=none;strokeColor=#007FFF;" parent="1" vertex="1">
          <mxGeometry x="60" y="60" width="130" height="370" as="geometry" />
        </mxCell>
        <mxCell id="2j2zFg-mZ-czmFyBMrvt-2" value="" style="endArrow=none;html=1;rounded=0;fontColor=#FFFFFF;" edge="1" parent="1">
          <mxGeometry width="50" height="50" relative="1" as="geometry">
            <mxPoint y="545" as="sourcePoint" />
            <mxPoint x="349" y="545" as="targetPoint" />
          </mxGeometry>
        </mxCell>
        <mxCell id="2j2zFg-mZ-czmFyBMrvt-3" value="" style="endArrow=classic;startArrow=classic;html=1;rounded=0;strokeColor=#000000;strokeWidth=1;" edge="1" parent="1">
          <mxGeometry width="50" height="50" relative="1" as="geometry">
            <mxPoint x="210" y="510" as="sourcePoint" />
            <mxPoint x="210" y="545" as="targetPoint" />
          </mxGeometry>
        </mxCell>
        <mxCell id="2j2zFg-mZ-czmFyBMrvt-4" value="3.5ft" style="text;html=1;strokeColor=none;fillColor=none;align=center;verticalAlign=middle;whiteSpace=wrap;rounded=0;" vertex="1" parent="1">
          <mxGeometry x="160" y="510" width="60" height="30" as="geometry" />
        </mxCell>
        <mxCell id="2j2zFg-mZ-czmFyBMrvt-6" value="&lt;font color=&quot;#ffffff&quot;&gt;Garage&lt;br&gt;19.2x14.2&lt;/font&gt;" style="text;html=1;strokeColor=none;fillColor=none;align=center;verticalAlign=middle;whiteSpace=wrap;rounded=0;rotation=0;" vertex="1" parent="1">
          <mxGeometry x="86" y="550" width="60" height="30" as="geometry" />
        </mxCell>
      </root>
    </mxGraphModel>
  </diagram>
</mxfile>
